<svg height='24px' width='24px' xmlns="http://www.w3.org/2000/svg" xmlns:xlink="http://www.w3.org/1999/xlink" version="1.1" x="0px" y="0px" viewBox="0 0 64 64">
    <path
      d="M46.1,42.2c-0.6-0.6-1.2-1.3-1.7-1.9c-0.9-1-1.8-2-2.8-3.3c-0.3-0.4-0.3-1,0.1-1.3c1.5-1.3,3.1-2.4,4.3-3.9   c0.4-0.5-1.8-1.7-1.9-1.8c-3.7-2.5-7.7-3.7-12.2-3.7c-0.4,0-0.8-0.2-1.2-0.4c-2.3-1.2-4.6-2.5-6.9-3.6c-1.1-0.5-2.2-0.1-2.5,0.8   c-0.2,0.6-0.1,1.3,0,1.9c0.2,1,0.5,1.9,0.7,2.7c-2.9,1.5-5.7,2.9-8.5,4.3c-0.2,0.1-0.7,0-0.9-0.2c-2.4-1.8-5.1-3-8-3.9   C3,27.3,1.8,28,1.8,29.5c0,0.4,0.1,0.8,0.3,1.2c0.4,0.8,2.3,3.3,4,5.1c0.7,0.7,0.7,1.8,0,2.5c-1.8,2-4,4.9-4.1,5.1   c-0.3,0.8-0.5,1.7,0.2,2.4c0.7,0.8,1.6,0.6,2.4,0.3c2.7-1,5.4-2.1,7.7-3.8c0.2-0.2,0.6-0.3,0.8-0.2c2.2,1.1,4.4,2.2,6.6,3.4   c-0.2,0.5-0.3,1-0.4,1.5c-0.1,0.5-0.3,1-0.4,1.5c-0.3,1.3,0,2.3,1,2.6c0.6,0.1,1.3,0.1,1.8-0.2c1.9-0.9,3.8-2,5.7-2.9   c0.6-0.3,1.3-0.4,1.9-0.4c3.2,0.3,6.4-0.1,9.4-1.2c1.7-0.6,3.3-1.5,4.9-2.3c0.4-0.2,0.8-0.3,1.2-0.5C45.6,43.4,46.7,42.9,46.1,42.2   z M37.7,34.8c-1,0-1.9-0.9-1.9-1.9c0-1,0.9-1.9,1.9-1.9c1,0,1.9,0.8,1.9,1.9C39.6,34,38.8,34.8,37.7,34.8z"></path>
    <path
      d="M61.8,35.9c-1.1-1.2-2.3-1.9-3.9-2.1c-0.7-0.1-1.4-0.4-2.1-0.7c-0.5-0.2-1.1-0.5-1.8-0.8c0.1,0.4,0.1,0.6,0.1,0.8   c0.3,0.8,0.1,1.2-0.7,1.4c-0.6,0.2-1.1,0.5-1.6,0.8c-0.4,0.3-0.7,0.2-1.2,0c-0.7-0.4-1.5-0.8-2.2-1.1c-0.2-0.1-0.5,0.1-0.4,0.4   c0.4,0.8,0.8,1.5,1.2,2.2c-0.4,0.8-0.8,1.5-1.2,2.2c-0.1,0.2,0.1,0.5,0.4,0.4c0.7-0.4,1.5-0.7,2.2-1.1c0.2-0.1,0.4-0.3,0.6-0.3   c0.8,0.4,1.6,0.7,2.3,1.2c0.2,0.2,0,0.9,0,1.3c0,0.1,0.1,0.2,0.1,0.4c0.3-0.1,0.6-0.2,0.8-0.3c0.9-0.5,1.7-0.8,2.8-0.8   c1.8,0,3.4-0.7,4.6-2.1C62.3,37.1,62.4,36.6,61.8,35.9z M60.1,36.3c-0.2,0-0.4-0.2-0.4-0.4c0-0.2,0.2-0.4,0.4-0.4s0.4,0.2,0.4,0.4   C60.4,36.2,60.3,36.3,60.1,36.3z"></path>
</svg>
