<?xml version="1.0" encoding="utf-8"?><svg xmlns="http://www.w3.org/2000/svg" xmlns:xlink="http://www.w3.org/1999/xlink"><style>@import url('../css/main.css');</style><symbol viewBox="0 0 24 24" id="icon--computer" xmlns="http://www.w3.org/2000/svg"><path d="M2 0a2 2 0 0 0-2 2v15a2 2 0 0 0 2 2h20a2 2 0 0 0 2-2V2a2 2 0 0 0-2-2H2zm20 14H2V2h20v12zm-6.599 7c0 1.6 1.744 2.625 2.599 3H6c.938-.333 2.599-1.317 2.599-3h6.802z"/></symbol><symbol viewBox="0 0 24 24" id="icon--download" xmlns="http://www.w3.org/2000/svg"><path d="M16 11h5l-9 10-9-10h5V0h8v11zm3 8v3H5v-3H3v5h18v-5h-2z"/></symbol><symbol viewBox="0 0 64 64" id="icon--fish" xmlns="http://www.w3.org/2000/svg"><path d="M46.1 42.2c-.6-.6-1.2-1.3-1.7-1.9-.9-1-1.8-2-2.8-3.3-.3-.4-.3-1 .1-1.3 1.5-1.3 3.1-2.4 4.3-3.9.4-.5-1.8-1.7-1.9-1.8-3.7-2.5-7.7-3.7-12.2-3.7-.4 0-.8-.2-1.2-.4-2.3-1.2-4.6-2.5-6.9-3.6-1.1-.5-2.2-.1-2.5.8-.2.6-.1 1.3 0 1.9.2 1 .5 1.9.7 2.7-2.9 1.5-5.7 2.9-8.5 4.3-.2.1-.7 0-.9-.2-2.4-1.8-5.1-3-8-3.9-1.6-.6-2.8.1-2.8 1.6 0 .4.1.8.3 1.2.4.8 2.3 3.3 4 5.1.7.7.7 1.8 0 2.5-1.8 2-4 4.9-4.1 5.1-.3.8-.5 1.7.2 2.4.7.8 1.6.6 2.4.3 2.7-1 5.4-2.1 7.7-3.8.2-.2.6-.3.8-.2 2.2 1.1 4.4 2.2 6.6 3.4-.2.5-.3 1-.4 1.5-.1.5-.3 1-.4 1.5-.3 1.3 0 2.3 1 2.6.6.1 1.3.1 1.8-.2 1.9-.9 3.8-2 5.7-2.9.6-.3 1.3-.4 1.9-.4 3.2.3 6.4-.1 9.4-1.2 1.7-.6 3.3-1.5 4.9-2.3.4-.2.8-.3 1.2-.5.8-.2 1.9-.7 1.3-1.4zm-8.4-7.4c-1 0-1.9-.9-1.9-1.9 0-1 .9-1.9 1.9-1.9 1 0 1.9.8 1.9 1.9 0 1.1-.8 1.9-1.9 1.9zM61.8 35.9c-1.1-1.2-2.3-1.9-3.9-2.1-.7-.1-1.4-.4-2.1-.7-.5-.2-1.1-.5-1.8-.8.1.4.1.6.1.8.3.8.1 1.2-.7 1.4-.6.2-1.1.5-1.6.8-.4.3-.7.2-1.2 0-.7-.4-1.5-.8-2.2-1.1-.2-.1-.5.1-.4.4.4.8.8 1.5 1.2 2.2-.4.8-.8 1.5-1.2 2.2-.1.2.1.5.4.4.7-.4 1.5-.7 2.2-1.1.2-.1.4-.3.6-.3.8.4 1.6.7 2.3 1.2.2.2 0 .9 0 1.3 0 .1.1.2.1.4.3-.1.6-.2.8-.3.9-.5 1.7-.8 2.8-.8 1.8 0 3.4-.7 4.6-2.1.5-.6.6-1.1 0-1.8zm-1.7.4c-.2 0-.4-.2-.4-.4s.2-.4.4-.4.4.2.4.4c-.1.3-.2.4-.4.4z"/></symbol><symbol viewBox="0 0 24 24" id="icon--logout" xmlns="http://www.w3.org/2000/svg"><path d="M8 9V5l8 7-8 7v-4H0V9h8zm2-7v2h12v16H10v2h14V2H10z"/></symbol><symbol viewBox="0 0 24 24" id="icon--map" xmlns="http://www.w3.org/2000/svg"><path d="M12 3c2.131 0 4 1.73 4 3.702 0 2.05-1.714 4.941-4 8.561-2.286-3.62-4-6.511-4-8.561C8 4.73 9.869 3 12 3zm0-2C8.852 1 6 3.553 6 6.702 6 9.85 8.602 13.609 12 19c3.398-5.391 6-9.15 6-12.298C18 3.553 15.149 1 12 1zm0 8a2 2 0 1 1-.001-3.999A2 2 0 0 1 12 9zm12 14H0l4-8h3.135c.385.641.798 1.309 1.232 2H5.236l-2 4h17.527l-2-4h-3.131c.435-.691.848-1.359 1.232-2H20l4 8z"/></symbol><symbol viewBox="0 0 24 24" id="icon--orders" xmlns="http://www.w3.org/2000/svg"><path d="M13 17h4v1h-4v-1zm0-1h4v-1h-4v1zm9-14v22H2V2h3C6.23 2 7.181.916 8 0h8c.82.916 1.771 2 3 2h3zM11 3a1 1 0 1 0 2 0 1 1 0 0 0-2 0zm9 1h-4l-2 2h-3.897L8 4H4v18h16V4zm-7 9h4v-1h-4v1zm0-2h4v-1h-4v1zm-6.5.077l.386-.355c.449.218.735.383 1.241.745.952-1.081 1.58-1.627 2.748-2.355L11 9.4c-.963.841-1.669 1.777-2.686 3.6-.626-.738-1.044-1.208-1.814-1.923zm.098 5l.386-.355c.449.218.735.383 1.241.745.952-1.081 1.58-1.627 2.748-2.355l.125.289c-.963.841-1.669 1.777-2.686 3.6-.627-.739-1.045-1.209-1.814-1.924z"/></symbol><symbol viewBox="0 0 24 24" id="icon--piechart" xmlns="http://www.w3.org/2000/svg"><path d="M13 12.414V.05C19.158.56 24 5.71 24 12c0 6.627-5.373 12-12 12a11.942 11.942 0 0 1-7.744-2.842L13 12.414zM11 .05C4.842.56 0 5.71 0 12c0 2.954 1.072 5.654 2.842 7.745l1.42-1.42A9.956 9.956 0 0 1 2 12c0-5.177 3.953-9.446 9-9.949V.05z"/></symbol><symbol viewBox="0 0 24 24" id="icon--piechart-filled" xmlns="http://www.w3.org/2000/svg"><path d="M13.012 5.007V3.339L15.814.568a11.8 11.8 0 0 1 1.197.471l-3.999 3.968zm7.089-1.93l-7.089 7.058v.853h.877l7.044-7.076c-.263-.292-.541-.57-.832-.835zm-7.089-1.468L14.449.203c-.46-.094-.96-.163-1.437-.203v1.609zm10.789 7.962l-1.386 1.417H24c-.04-.47-.106-.964-.199-1.417zm-.363-1.366c-.135-.41-.292-.81-.469-1.199l-3.951 3.982h1.668l2.752-2.783zm-1.063-2.337a11.856 11.856 0 0 0-.664-1.004l-6.093 6.124h1.668l5.089-5.12zm-3.225-3.57a12.096 12.096 0 0 0-1.003-.665l-5.135 5.104v1.668l6.138-6.107zM11 13V0C4.839.519 0 5.683 0 11.978 0 18.617 5.382 24 12.021 24c6.296 0 11.46-4.839 11.979-11H11z"/></symbol><symbol viewBox="0 0 24 24" id="icon--profile" xmlns="http://www.w3.org/2000/svg"><path d="M12 0C5.373 0 0 5.373 0 12s5.373 12 12 12 12-5.373 12-12S18.627 0 12 0zm7.753 18.305c-.261-.586-.789-.991-1.871-1.241-2.293-.529-4.428-.993-3.393-2.945C17.634 8.177 15.322 5 12 5c-3.388 0-5.644 3.299-2.489 9.119 1.066 1.964-1.148 2.427-3.393 2.945-1.084.25-1.608.658-1.867 1.246A9.954 9.954 0 0 1 2 12C2 6.486 6.486 2 12 2s10 4.486 10 10a9.956 9.956 0 0 1-2.247 6.305z"/></symbol><symbol viewBox="0 0 24 24" id="icon--settings" xmlns="http://www.w3.org/2000/svg"><path d="M24 14.187V9.813c-2.148-.766-2.726-.802-3.027-1.529-.303-.729.083-1.169 1.059-3.223l-3.093-3.093c-2.026.963-2.488 1.364-3.224 1.059-.727-.302-.768-.889-1.527-3.027H9.813c-.764 2.144-.8 2.725-1.529 3.027-.752.313-1.203-.1-3.223-1.059L1.968 5.061c.977 2.055 1.362 2.493 1.059 3.224-.302.727-.881.764-3.027 1.528v4.375c2.139.76 2.725.8 3.027 1.528.304.734-.081 1.167-1.059 3.223l3.093 3.093c1.999-.95 2.47-1.373 3.223-1.059.728.302.764.88 1.529 3.027h4.374c.758-2.131.799-2.723 1.537-3.031.745-.308 1.186.099 3.215 1.062l3.093-3.093c-.975-2.05-1.362-2.492-1.059-3.223.3-.726.88-.763 3.027-1.528zm-4.875.764c-.577 1.394-.068 2.458.488 3.578l-1.084 1.084c-1.093-.543-2.161-1.076-3.573-.49-1.396.581-1.79 1.693-2.188 2.877h-1.534c-.398-1.185-.791-2.297-2.183-2.875-1.419-.588-2.507-.045-3.579.488l-1.083-1.084c.557-1.118 1.066-2.18.487-3.58-.579-1.391-1.691-1.784-2.876-2.182v-1.533c1.185-.398 2.297-.791 2.875-2.184.578-1.394.068-2.459-.488-3.579l1.084-1.084c1.082.538 2.162 1.077 3.58.488 1.392-.577 1.785-1.69 2.183-2.875h1.534c.398 1.185.792 2.297 2.184 2.875 1.419.588 2.506.045 3.579-.488l1.084 1.084c-.556 1.121-1.065 2.187-.488 3.58.577 1.391 1.689 1.784 2.875 2.183v1.534c-1.188.398-2.302.791-2.877 2.183zM12 9c1.654 0 3 1.346 3 3s-1.346 3-3 3-3-1.346-3-3 1.346-3 3-3zm0-2c-2.762 0-5 2.238-5 5s2.238 5 5 5 5-2.238 5-5-2.238-5-5-5z"/></symbol><symbol viewBox="0 0 24 24" id="icon--users" xmlns="http://www.w3.org/2000/svg"><path d="M17.997 18H6.002L6 17.377c0-1.259.1-1.986 1.588-2.33 1.684-.389 3.344-.736 2.545-2.209C7.767 8.475 9.459 6 11.999 6c2.491 0 4.226 2.383 1.866 6.839-.775 1.464.826 1.812 2.545 2.209 1.49.344 1.589 1.072 1.589 2.333l-.002.619zm4.811-2.214c-1.29-.298-2.49-.559-1.909-1.657 1.769-3.342.469-5.129-1.4-5.129-1.265 0-2.248.817-2.248 2.324 0 3.903 2.268 1.77 2.246 6.676h4.501l.002-.463c0-.946-.074-1.493-1.192-1.751zM.002 18h4.501c-.021-4.906 2.246-2.772 2.246-6.676C6.749 9.817 5.766 9 4.501 9c-1.869 0-3.169 1.787-1.399 5.129.581 1.099-.619 1.359-1.909 1.657C.074 16.044 0 16.591 0 17.537L.002 18z"/></symbol></svg>